<mxfile host="app.diagrams.net" agent="Mozilla/5.0 (X11; Ubuntu; Linux x86_64; rv:131.0) Gecko/20100101 Firefox/131.0" version="24.7.17">
  <diagram name="Page-1" id="w4ZYBZeH5Fpmg8U4YPvL">
    <mxGraphModel dx="626" dy="468" grid="1" gridSize="10" guides="1" tooltips="1" connect="1" arrows="1" fold="1" page="1" pageScale="1" pageWidth="850" pageHeight="1100" math="0" shadow="0">
      <root>
        <mxCell id="0" />
        <mxCell id="ikP8FcmtaZFmG0Al0bjf-40" value="Untitled Layer" style="" parent="0" />
        <mxCell id="ikP8FcmtaZFmG0Al0bjf-41" value="&lt;div&gt;MAIN THREAD&lt;/div&gt;" style="rounded=1;whiteSpace=wrap;html=1;verticalAlign=top;fillColor=#f5f5f5;strokeColor=#666666;fontColor=#333333;" vertex="1" parent="ikP8FcmtaZFmG0Al0bjf-40">
          <mxGeometry x="50" y="10" width="180" height="220" as="geometry" />
        </mxCell>
        <mxCell id="ikP8FcmtaZFmG0Al0bjf-42" value="&lt;div&gt;ASYNC TASK&lt;/div&gt;&lt;div&gt;THREAD&lt;/div&gt;" style="rounded=1;whiteSpace=wrap;html=1;verticalAlign=top;fillColor=#f5f5f5;strokeColor=#666666;fontColor=#333333;" vertex="1" parent="ikP8FcmtaZFmG0Al0bjf-40">
          <mxGeometry x="95" y="280" width="90" height="110" as="geometry" />
        </mxCell>
        <mxCell id="ikP8FcmtaZFmG0Al0bjf-44" value="Async&lt;br&gt;Loop" style="text;html=1;align=center;verticalAlign=middle;whiteSpace=wrap;rounded=0;" vertex="1" parent="ikP8FcmtaZFmG0Al0bjf-40">
          <mxGeometry x="109" y="336" width="60" height="30" as="geometry" />
        </mxCell>
        <mxCell id="ikP8FcmtaZFmG0Al0bjf-47" value="" style="endArrow=classic;html=1;rounded=0;entryX=0.5;entryY=0;entryDx=0;entryDy=0;exitX=0.5;exitY=1;exitDx=0;exitDy=0;" edge="1" parent="ikP8FcmtaZFmG0Al0bjf-40" source="ikP8FcmtaZFmG0Al0bjf-41" target="ikP8FcmtaZFmG0Al0bjf-42">
          <mxGeometry width="50" height="50" relative="1" as="geometry">
            <mxPoint x="100" y="250" as="sourcePoint" />
            <mxPoint x="150" y="200" as="targetPoint" />
          </mxGeometry>
        </mxCell>
        <mxCell id="ikP8FcmtaZFmG0Al0bjf-48" value="Async Task" style="text;html=1;align=center;verticalAlign=middle;whiteSpace=wrap;rounded=0;fillColor=#f5f5f5;fontColor=#333333;strokeColor=#666666;" vertex="1" parent="ikP8FcmtaZFmG0Al0bjf-40">
          <mxGeometry x="201" y="331" width="79" height="24" as="geometry" />
        </mxCell>
        <mxCell id="ikP8FcmtaZFmG0Al0bjf-49" value="" style="endArrow=classic;html=1;rounded=0;exitX=1;exitY=0.25;exitDx=0;exitDy=0;entryX=0;entryY=0.5;entryDx=0;entryDy=0;fillColor=#f5f5f5;strokeColor=#666666;" edge="1" parent="ikP8FcmtaZFmG0Al0bjf-40" source="ikP8FcmtaZFmG0Al0bjf-44" target="ikP8FcmtaZFmG0Al0bjf-48">
          <mxGeometry width="50" height="50" relative="1" as="geometry">
            <mxPoint x="100" y="250" as="sourcePoint" />
            <mxPoint x="150" y="200" as="targetPoint" />
          </mxGeometry>
        </mxCell>
        <mxCell id="1" style="" parent="0" />
        <mxCell id="ikP8FcmtaZFmG0Al0bjf-11" value="" style="shape=image;verticalLabelPosition=bottom;labelBackgroundColor=default;verticalAlign=top;aspect=fixed;imageAspect=0;image=data:image/svg+xml,PHN2ZyB4bWxucz0iaHR0cDovL3d3dy53My5vcmcvMjAwMC9zdmciIGlkPSJzdmcxIiB2ZXJzaW9uPSIxLjEiIHZpZXdCb3g9IjAgMCAzNS40NTQxNjYgMzMuMDcyOTE3IiBoZWlnaHQ9IjEyNSIgd2lkdGg9IjEzNCI+JiN4YTsgIDxkZWZzIGlkPSJkZWZzMSIvPiYjeGE7ICA8ZyBpZD0ibGF5ZXIxIj4mI3hhOyAgICA8ZyB0cmFuc2Zvcm09InRyYW5zbGF0ZSgtNjUuNDMzODg4LC00OC44MTYxNDMpIiBpZD0iZzMiPiYjeGE7ICAgICAgPHBhdGggZD0iTSA4My4yODYzOSw0OS4wODA3MjYgQSAxNy4wMjE4OTQsMTYuMzExOTQzIDAgMCAwIDY2LjUwNTUwMiw2Mi43NzM0MyBoIDMuMjcyNjY5IEEgMTMuODMyMzQ5LDEyLjkyNDg1IDAgMCAxIDgzLjI4NjM5LDUyLjQ2NzU5OSAxMy44MzIzNDksMTIuOTI0ODUgMCAwIDEgOTYuNzk0NjEsNjIuNzczNDMgaCAzLjI3MjY3IEEgMTcuMDIxODk0LDE2LjMxMTk0MyAwIDAgMCA4My4yODYzOSw0OS4wODA3MjYgWiBNIDY2LjQwNTc2Nyw2Ny4yODE2ODIgQSAxNy4wMjE4OTQsMTYuMzExOTQzIDAgMCAwIDgzLjI4NjM5LDgxLjcwNDU3NSAxNy4wMjE4OTQsMTYuMzExOTQzIDAgMCAwIDEwMC4xODg3Miw2Ny4yODE2ODIgSCA5Ni45NjYxNzYgQSAxMy44MzIzNDksMTIuOTI0ODUgMCAwIDEgODMuMjg2MzksNzguMzE3NzAxIDEzLjgzMjM0OSwxMi45MjQ4NSAwIDAgMSA2OS42MTI4MDYsNjcuMjgxNjgyIFoiIHN0eWxlPSJmaWxsOiNhN2E3YTc7ZmlsbC1vcGFjaXR5OjE7c3Ryb2tlOm5vbmU7c3Ryb2tlLXdpZHRoOjAuMTMyMjkyO3N0cm9rZS1vcGFjaXR5OjEiIGlkPSJwYXRoMSIvPiYjeGE7ICAgICAgPHBhdGggaWQ9InBhdGgyIiBkPSJNIDk5LjQ4MTgyNyw2NS40NjI2NzYgOTQuODY1MjMzLDYxLjg0Mjc3IDEwMC43MDQ5Myw2MC4wNzI1NjQgWiIgc3R5bGU9ImZpbGw6I2E3YTdhNztmaWxsLW9wYWNpdHk6MTtzdHJva2U6bm9uZTtzdHJva2Utd2lkdGg6MC4yNjQ1ODNweDtzdHJva2UtbGluZWNhcDpidXR0O3N0cm9rZS1saW5lam9pbjptaXRlcjtzdHJva2Utb3BhY2l0eToxIi8+JiN4YTsgICAgICA8cGF0aCBpZD0icGF0aDMiIGQ9Im0gNjYuOTQwMjA2LDY0LjQxMDgwOSAtMS4yNDE3MzUsNS45OTI3MzEgNS44MDk5NzMsLTEuODY1NDYgeiIgc3R5bGU9ImZpbGw6I2E3YTdhNztmaWxsLW9wYWNpdHk6MTtzdHJva2U6bm9uZTtzdHJva2Utd2lkdGg6MC4yNjQ1ODNweDtzdHJva2UtbGluZWNhcDpidXR0O3N0cm9rZS1saW5lam9pbjptaXRlcjtzdHJva2Utb3BhY2l0eToxIi8+JiN4YTsgICAgPC9nPiYjeGE7ICA8L2c+JiN4YTs8L3N2Zz4=;imageBackground=none;" vertex="1" parent="1">
          <mxGeometry x="80" y="80" width="134" height="125" as="geometry" />
        </mxCell>
        <mxCell id="ikP8FcmtaZFmG0Al0bjf-12" value="&lt;div&gt;Update&lt;/div&gt;&lt;div&gt;Screen&lt;/div&gt;" style="rounded=1;whiteSpace=wrap;html=1;fillColor=#f5f5f5;fontColor=#333333;strokeColor=#666666;" vertex="1" parent="1">
          <mxGeometry x="40" y="40" width="50" height="30" as="geometry" />
        </mxCell>
        <mxCell id="ikP8FcmtaZFmG0Al0bjf-17" value="Callback" style="rounded=1;whiteSpace=wrap;html=1;fillColor=#f5f5f5;fontColor=#3D3D3D;strokeColor=#666666;" vertex="1" parent="1">
          <mxGeometry x="212.5" y="220" width="60" height="20" as="geometry" />
        </mxCell>
        <mxCell id="ikP8FcmtaZFmG0Al0bjf-18" value="Event N" style="rounded=0;whiteSpace=wrap;html=1;fillColor=#f5f5f5;fontColor=#3D3D3D;strokeColor=#666666;" vertex="1" parent="1">
          <mxGeometry x="240" y="40" width="60" height="20" as="geometry" />
        </mxCell>
        <mxCell id="ikP8FcmtaZFmG0Al0bjf-19" value="Event 2" style="rounded=0;whiteSpace=wrap;html=1;fillColor=#f5f5f5;fontColor=#3D3D3D;strokeColor=#666666;" vertex="1" parent="1">
          <mxGeometry x="240" y="90" width="60" height="20" as="geometry" />
        </mxCell>
        <mxCell id="ikP8FcmtaZFmG0Al0bjf-20" value="Event 1" style="rounded=0;whiteSpace=wrap;html=1;fillColor=#f5f5f5;fontColor=#3D3D3D;strokeColor=#666666;" vertex="1" parent="1">
          <mxGeometry x="240" y="120" width="60" height="20" as="geometry" />
        </mxCell>
        <mxCell id="ikP8FcmtaZFmG0Al0bjf-21" value="..." style="text;html=1;align=center;verticalAlign=middle;whiteSpace=wrap;rounded=0;fillColor=none;fontColor=#3D3D3D;strokeColor=none;" vertex="1" parent="1">
          <mxGeometry x="250" y="70" width="40" height="10" as="geometry" />
        </mxCell>
        <mxCell id="ikP8FcmtaZFmG0Al0bjf-23" value="Event Queue" style="text;html=1;align=center;verticalAlign=middle;whiteSpace=wrap;rounded=0;fillColor=none;fontColor=#3D3D3D;strokeColor=none;" vertex="1" parent="1">
          <mxGeometry x="225" y="10" width="90" height="30" as="geometry" />
        </mxCell>
        <mxCell id="ikP8FcmtaZFmG0Al0bjf-27" value="" style="endArrow=classic;html=1;rounded=0;entryX=0.5;entryY=0;entryDx=0;entryDy=0;exitX=1;exitY=0.75;exitDx=0;exitDy=0;curved=1;fillColor=#f5f5f5;strokeColor=#666666;fontColor=#3D3D3D;" edge="1" parent="1" source="ikP8FcmtaZFmG0Al0bjf-11" target="ikP8FcmtaZFmG0Al0bjf-17">
          <mxGeometry width="50" height="50" relative="1" as="geometry">
            <mxPoint x="90" y="250" as="sourcePoint" />
            <mxPoint x="140" y="200" as="targetPoint" />
            <Array as="points">
              <mxPoint x="243" y="190" />
            </Array>
          </mxGeometry>
        </mxCell>
        <mxCell id="ikP8FcmtaZFmG0Al0bjf-43" value="" style="shape=image;verticalLabelPosition=bottom;labelBackgroundColor=default;verticalAlign=top;aspect=fixed;imageAspect=0;image=data:image/svg+xml,PHN2ZyB4bWxucz0iaHR0cDovL3d3dy53My5vcmcvMjAwMC9zdmciIGlkPSJzdmcxIiB2ZXJzaW9uPSIxLjEiIHZpZXdCb3g9IjAgMCAzNS40NTQxNjYgMzMuMDcyOTE3IiBoZWlnaHQ9IjEyNSIgd2lkdGg9IjEzNCI+JiN4YTsgIDxkZWZzIGlkPSJkZWZzMSIvPiYjeGE7ICA8ZyBpZD0ibGF5ZXIxIj4mI3hhOyAgICA8ZyB0cmFuc2Zvcm09InRyYW5zbGF0ZSgtNjUuNDMzODg4LC00OC44MTYxNDMpIiBpZD0iZzMiPiYjeGE7ICAgICAgPHBhdGggZD0iTSA4My4yODYzOSw0OS4wODA3MjYgQSAxNy4wMjE4OTQsMTYuMzExOTQzIDAgMCAwIDY2LjUwNTUwMiw2Mi43NzM0MyBoIDMuMjcyNjY5IEEgMTMuODMyMzQ5LDEyLjkyNDg1IDAgMCAxIDgzLjI4NjM5LDUyLjQ2NzU5OSAxMy44MzIzNDksMTIuOTI0ODUgMCAwIDEgOTYuNzk0NjEsNjIuNzczNDMgaCAzLjI3MjY3IEEgMTcuMDIxODk0LDE2LjMxMTk0MyAwIDAgMCA4My4yODYzOSw0OS4wODA3MjYgWiBNIDY2LjQwNTc2Nyw2Ny4yODE2ODIgQSAxNy4wMjE4OTQsMTYuMzExOTQzIDAgMCAwIDgzLjI4NjM5LDgxLjcwNDU3NSAxNy4wMjE4OTQsMTYuMzExOTQzIDAgMCAwIDEwMC4xODg3Miw2Ny4yODE2ODIgSCA5Ni45NjYxNzYgQSAxMy44MzIzNDksMTIuOTI0ODUgMCAwIDEgODMuMjg2MzksNzguMzE3NzAxIDEzLjgzMjM0OSwxMi45MjQ4NSAwIDAgMSA2OS42MTI4MDYsNjcuMjgxNjgyIFoiIHN0eWxlPSJmaWxsOiNhN2E3YTc7ZmlsbC1vcGFjaXR5OjE7c3Ryb2tlOm5vbmU7c3Ryb2tlLXdpZHRoOjAuMTMyMjkyO3N0cm9rZS1vcGFjaXR5OjEiIGlkPSJwYXRoMSIvPiYjeGE7ICAgICAgPHBhdGggaWQ9InBhdGgyIiBkPSJNIDk5LjQ4MTgyNyw2NS40NjI2NzYgOTQuODY1MjMzLDYxLjg0Mjc3IDEwMC43MDQ5Myw2MC4wNzI1NjQgWiIgc3R5bGU9ImZpbGw6I2E3YTdhNztmaWxsLW9wYWNpdHk6MTtzdHJva2U6bm9uZTtzdHJva2Utd2lkdGg6MC4yNjQ1ODNweDtzdHJva2UtbGluZWNhcDpidXR0O3N0cm9rZS1saW5lam9pbjptaXRlcjtzdHJva2Utb3BhY2l0eToxIi8+JiN4YTsgICAgICA8cGF0aCBpZD0icGF0aDMiIGQ9Im0gNjYuOTQwMjA2LDY0LjQxMDgwOSAtMS4yNDE3MzUsNS45OTI3MzEgNS44MDk5NzMsLTEuODY1NDYgeiIgc3R5bGU9ImZpbGw6I2E3YTdhNztmaWxsLW9wYWNpdHk6MTtzdHJva2U6bm9uZTtzdHJva2Utd2lkdGg6MC4yNjQ1ODNweDtzdHJva2UtbGluZWNhcDpidXR0O3N0cm9rZS1saW5lam9pbjptaXRlcjtzdHJva2Utb3BhY2l0eToxIi8+JiN4YTsgICAgPC9nPiYjeGE7ICA8L2c+JiN4YTs8L3N2Zz4=;imageBackground=none;" vertex="1" parent="1">
          <mxGeometry x="105" y="320" width="66.46" height="62" as="geometry" />
        </mxCell>
        <mxCell id="ikP8FcmtaZFmG0Al0bjf-29" value="fore" style="locked=1;" parent="0" />
        <mxCell id="ikP8FcmtaZFmG0Al0bjf-30" value="&lt;font style=&quot;font-size: 9px;&quot;&gt;Event&lt;/font&gt;" style="rounded=0;whiteSpace=wrap;html=1;fillColor=#f5f5f5;fontColor=#3D3D3D;strokeColor=#666666;" vertex="1" parent="ikP8FcmtaZFmG0Al0bjf-29">
          <mxGeometry x="220" y="190" width="35" height="11" as="geometry" />
        </mxCell>
        <mxCell id="ikP8FcmtaZFmG0Al0bjf-36" value="" style="endArrow=classic;html=1;rounded=0;entryX=0.5;entryY=1;entryDx=0;entryDy=0;exitX=0.022;exitY=0.466;exitDx=0;exitDy=0;exitPerimeter=0;curved=1;fillColor=#f5f5f5;strokeColor=#666666;" edge="1" parent="ikP8FcmtaZFmG0Al0bjf-29" source="ikP8FcmtaZFmG0Al0bjf-11" target="ikP8FcmtaZFmG0Al0bjf-12">
          <mxGeometry width="50" height="50" relative="1" as="geometry">
            <mxPoint x="80" y="150" as="sourcePoint" />
            <mxPoint x="140" y="180" as="targetPoint" />
            <Array as="points">
              <mxPoint x="50" y="120" />
            </Array>
          </mxGeometry>
        </mxCell>
        <mxCell id="ikP8FcmtaZFmG0Al0bjf-37" value="TkInter&lt;div style=&quot;font-size: 16px;&quot;&gt;Event Loop&lt;br style=&quot;font-size: 16px;&quot;&gt;&lt;/div&gt;" style="text;html=1;align=center;verticalAlign=middle;whiteSpace=wrap;rounded=0;fillColor=none;fontColor=#3D3D3D;strokeColor=none;fontSize=16;" vertex="1" parent="ikP8FcmtaZFmG0Al0bjf-29">
          <mxGeometry x="100" y="110" width="90" height="70" as="geometry" />
        </mxCell>
        <mxCell id="ikP8FcmtaZFmG0Al0bjf-38" value="" style="shape=image;verticalLabelPosition=bottom;labelBackgroundColor=default;verticalAlign=top;aspect=fixed;imageAspect=0;image=data:image/svg+xml,PHN2ZyB4bWxucz0iaHR0cDovL3d3dy53My5vcmcvMjAwMC9zdmciIGlkPSJzdmcxIiB2ZXJzaW9uPSIxLjEiIHZpZXdCb3g9IjAgMCAyNi40NTgzMzMgMjYuNDU4MzM0IiBoZWlnaHQ9IjEwMCIgd2lkdGg9IjEwMCI+JiN4YTsgIDxkZWZzIGlkPSJkZWZzMSIvPiYjeGE7ICA8ZyBpZD0ibGF5ZXIxIj4mI3hhOyAgICA8cGF0aCBkPSJtIDYuNDQ0MTE1OCwzLjIzNzEyMTIgdiAwLjI0NDk0NjMgaCAtMC4zMTU3NDMgdiAwLjUyOTE2NjYgaCAwLjMxNTc0MyBWIDQuMTYzMTYyOCBIIDIwLjQ2NzAzMiBWIDQuMDExMjM0MSBoIDAuMjEzNDI0IFYgMy40ODIwNjc1IEggMjAuNDY3MDMyIFYgMy4yMzcxMjEyIFoiIHN0eWxlPSJmaWxsOiM5OTk5OTk7ZmlsbC1vcGFjaXR5OjE7c3Ryb2tlOm5vbmU7c3Ryb2tlLXdpZHRoOjAuMTMyMjkyO3N0cm9rZS1vcGFjaXR5OjEiIGlkPSJyZWN0MyIvPiYjeGE7ICAgIDxwYXRoIGQ9Im0gNi4yMTQ4NywyMy4yNjE0MTkgdiAwLjI0NDk0NiBIIDUuODk5MTI3IHYgMC41MjkxNjcgSCA2LjIxNDg3IHYgMC4xNTE5MjkgaCAxNC4wMjI5MTcgdiAtMC4xNTE5MjkgaCAwLjIxMzQyNCB2IC0wLjUyOTE2NyBoIC0wLjIxMzQyNCB2IC0wLjI0NDk0NiB6IiBzdHlsZT0iZmlsbDojOTk5OTk5O2ZpbGwtb3BhY2l0eToxO3N0cm9rZTpub25lO3N0cm9rZS13aWR0aDowLjEzMjI5MjtzdHJva2Utb3BhY2l0eToxIiBpZD0icGF0aDQiLz4mI3hhOyAgICA8cGF0aCBpZD0icGF0aDUiIGQ9Im0gNy4xNDQ1MzEyLDMuOTM1NTQ2OSBjIC0wLjI2OTQwNTEsMS41OTE1NTM4IC0wLjA4MDQ0MiwyLjcwODM3NTkgMC4zNjUyMzQ0LDMuNTYyNSAwLjQ0NTY3NiwwLjg1NDEyNDEgMS4xNDAwNzEzLDEuNDM4NDY0MyAxLjg1NzQyMTksMS45ODYzMjgxIDAuNzE3MzUwNSwwLjU0Nzg2NCAxLjQ1NzU5MTUsMS4wNjI4MDcgMi4wMjUzOTA1LDEuNzczNDM4IDAuNTY3Nzk5LDAuNzEwNjMgMC45Njk5ODYsMS42MTM3NjggMS4wMDc4MTMsMi45Njg3NSAwLjAyMzgsMC44NTI2MTIgLTAuMjk2MjU5LDEuNTE0NzI0IC0wLjgwMDc4MiwyLjEzMDg1OSAtMC41MDQ1MjIsMC42MTYxMzUgLTEuMTk1NDg5LDEuMTc2ODQ2IC0xLjg4NjcxODQsMS43OTY4NzUgLTEuMzgyNDU5MSwxLjI0MDA1NyAtMi43NjkwMDI0LDIuNzQzMDAyIC0yLjYwMzUxNTYsNS40MjU3ODEgbCAwLjI2MzY3MTksLTAuMDE1NjMgQyA3LjIxMzQ2MTIsMjAuOTc3MzQgOC41MjA4NTU1LDE5LjU4MDIzNyA5Ljg5MDYyNSwxOC4zNTE1NjIgMTAuNTc1NTEsMTcuNzM3MjI1IDExLjI3NTQwMSwxNy4xNzE3NjggMTEuODA0Njg4LDE2LjUyNTM5MSAxMi4zMzM5NzQsMTUuODc5MDEzIDEyLjY5MTgsMTUuMTQyNDIgMTIuNjY2MDE2LDE0LjIxODc1IDEyLjYyNjgwNiwxMi44MTQyMDQgMTIuMTk4MzAxLDExLjg0MTA5MSAxMS41OTk2MDksMTEuMDkxNzk3IDExLjAwMDkxOCwxMC4zNDI1MDIgMTAuMjM4MTE0LDkuODE2Mjc2IDkuNTI3MzQzOCw5LjI3MzQzNzUgOC44MTY1NzMxLDguNzMwNTk5IDguMTYwMzkzMSw4LjE3NDY4NzkgNy43NDQxNDA2LDcuMzc2OTUzMSA3LjMyNzg4ODIsNi41NzkyMTg0IDcuMTQzNTY3Miw1LjUzMjMwOTUgNy40MDYyNSwzLjk4MDQ2ODggWiIgc3R5bGU9ImNvbG9yOiMwMDAwMDA7ZmlsbDojOTk5OTk5O2ZpbGwtb3BhY2l0eToxOy1pbmtzY2FwZS1zdHJva2U6bm9uZSIvPiYjeGE7ICAgIDxwYXRoIGlkPSJwYXRoNiIgZD0iTSAxOS43NzUzOTEsMy45NjA5Mzc1IDE5LjUxMTcxOSw0IGMgMC4yMjA3MTcsMS41MzkwODIzIC0wLjAxMjIzLDIuNjExODIxMyAtMC40ODI0MjIsMy40NDcyNjU2IC0wLjQ3MDE4OSwwLjgzNTQ0NDQgLTEuMTg1Mjg4LDEuNDM3MzkzNSAtMS45NDUzMTMsMi4wMDc4MTI1IC0wLjc2MDAyNCwwLjU3MDQxODkgLTEuNTYyODM3LDEuMTA2NzQ2OSAtMi4xOTE0MDYsMS44MjAzMTI5IC0wLjYyODU2OSwwLjcxMzU2NSAtMS4wNzU5OCwxLjYxMDIwNSAtMS4xMDkzNzUsMi44NjkxNCAtMC4wMjU3NCwwLjk3MDUwMyAwLjM1NTk0MSwxLjc0NzAxIDAuOTIxODc1LDIuNDI1NzgxIDAuNTY1OTM0LDAuNjc4NzcyIDEuMzEzNzgzLDEuMjY4MzgxIDIuMDQ4ODI4LDEuODk2NDg1IDEuNDcwMDksMS4yNTYyMDcgMi44NzYxMDksMi42MzY5NDggMi43MzA0NjksNS4xMzg2NzIgTCAxOS43NSwyMy42MjEwOTQgYyAwLjE1MTc3NCwtMi42MDcwOTUgLTEuMzQ0MDEyLC00LjA5MDYxNyAtMi44MjQyMTksLTUuMzU1NDY5IC0wLjc0MDEwMywtMC42MzI0MjYgLTEuNDc3MTUzLC0xLjIxNzA1OSAtMi4wMTc1NzgsLTEuODY1MjM0IC0wLjU0MDQyNSwtMC42NDgxNzYgLTAuODg1MTYsLTEuMzQ5NjEzIC0wLjg2MTMyOCwtMi4yNDgwNDcgMC4wMzE4NSwtMS4yMDA1NDggMC40NDUyNzgsLTIuMDI0NjEzIDEuMDQyOTY5LC0yLjcwMzEyNSAwLjU5NzY5LC0wLjY3ODUxMiAxLjM4NjU0MSwtMS4yMDY5ODIgMi4xNTQyOTcsLTEuNzgzMjAzNCAwLjc2Nzc1NiwtMC41NzYyMjE3IDEuNTE2MDExLC0xLjIwMjExNTcgMi4wMTU2MjUsLTIuMDg5ODQzNyAwLjQ5OTYxMywtMC44ODc3MjgxIDAuNzQyNTgxLC0yLjAzMjY0NDIgMC41MTU2MjUsLTMuNjE1MjM0NCB6IiBzdHlsZT0iY29sb3I6IzAwMDAwMDtmaWxsOiM5OTk5OTk7ZmlsbC1vcGFjaXR5OjE7LWlua3NjYXBlLXN0cm9rZTpub25lIi8+JiN4YTsgIDwvZz4mI3hhOyAgPGcgc3R5bGU9ImRpc3BsYXk6aW5saW5lIiBpZD0ibGF5ZXIzIj4mI3hhOyAgICA8cGF0aCBpZD0icGF0aDciIGQ9Ik0gMTMuMjU1ODMxLDEyLjA2NzA1NSBDIDExLjg1NjI2OCw5Ljk0NDk1MjggOC45NzgwNjM5LDguNjEwOTgyNCA4LjEzMTU0MzQsNy4wMzE5NzgzIDkuOTIxNjg5OSw3LjU3OTUyMDcgMTQuNjgwNTk1LDguMjA4MzMxNCAxOC41NDc0NjMsNy41MTYxMzY3IDE2LjkwMDM2Niw5LjQwNTkwMDEgMTQuMjkwOTk3LDEwLjU0NjY4OSAxMy4yNTU4MzEsMTIuMDY3MDU1IFoiIHN0eWxlPSJmaWxsOiM5OTk5OTk7ZmlsbC1vcGFjaXR5OjE7c3Ryb2tlOm5vbmU7c3Ryb2tlLXdpZHRoOjAuMjY0NTgzcHg7c3Ryb2tlLWxpbmVjYXA6YnV0dDtzdHJva2UtbGluZWpvaW46bWl0ZXI7c3Ryb2tlLW9wYWNpdHk6MSIvPiYjeGE7ICAgIDxwYXRoIGlkPSJwYXRoOCIgZD0ibSA4Ljc2NTUwNzYsMjIuODQzMDExIDkuNzQ1NjU3NCwtMC4wNTY0MSBjIC0yLjYzNzc1MSwtMS4wODQyNjMgLTIuNTU1MjA2LC0yLjAyNzY2MyAtNS4yMDEzNDUsLTIuMDgwOTg3IC0xLjk1NDI5MiwtMC4wMzkzOCAtMi43MjQyMDUsMC45NzI3NzMgLTQuNTQ0MzEyNCwyLjEzNzM5NyB6IiBzdHlsZT0iZmlsbDojOTk5OTk5O2ZpbGwtb3BhY2l0eToxO3N0cm9rZTpub25lO3N0cm9rZS13aWR0aDowLjI2NDU4M3B4O3N0cm9rZS1saW5lY2FwOmJ1dHQ7c3Ryb2tlLWxpbmVqb2luOm1pdGVyO3N0cm9rZS1vcGFjaXR5OjEiLz4mI3hhOyAgICA8ZWxsaXBzZSByeT0iMC4xOTk0MTgwOCIgcng9IjAuMTY1Mzg3MDMiIGN5PSIxNy4zOTU4NjQiIGN4PSIxMi44NjIzMDkiIGlkPSJwYXRoOSIgc3R5bGU9ImZpbGw6Izk5OTk5OTtmaWxsLW9wYWNpdHk6MTtzdHJva2U6bm9uZTtzdHJva2Utd2lkdGg6MC4xMzIyOTI7c3Ryb2tlLW9wYWNpdHk6MSIvPiYjeGE7ICAgIDxlbGxpcHNlIHJ5PSIwLjE5OTQxODA4IiByeD0iMC4xNjUzODcwMyIgY3k9IjE0LjQ2NDA2NyIgY3g9IjEzLjM1NjI5NCIgaWQ9ImVsbGlwc2U5IiBzdHlsZT0iZmlsbDojOTk5OTk5O2ZpbGwtb3BhY2l0eToxO3N0cm9rZTpub25lO3N0cm9rZS13aWR0aDowLjEzMjI5MjtzdHJva2Utb3BhY2l0eToxIi8+JiN4YTsgICAgPGVsbGlwc2Ugcnk9IjAuMTk5NDE4MDgiIHJ4PSIwLjE2NTM4NzAzIiBjeT0iMTUuNzk5MTA4IiBjeD0iMTMuMTkyMjYyIiBpZD0iZWxsaXBzZTEwIiBzdHlsZT0iZmlsbDojOTk5OTk5O2ZpbGwtb3BhY2l0eToxO3N0cm9rZTpub25lO3N0cm9rZS13aWR0aDowLjEzMjI5MjtzdHJva2Utb3BhY2l0eToxIi8+JiN4YTsgICAgPGVsbGlwc2Ugcnk9IjAuMTk5NDE4MDgiIHJ4PSIwLjE2NTM4NzAzIiBjeT0iMTYuNzQ2NjMyIiBjeD0iMTMuMzc1MTU3IiBpZD0iZWxsaXBzZTExIiBzdHlsZT0iZmlsbDojOTk5OTk5O2ZpbGwtb3BhY2l0eToxO3N0cm9rZTpub25lO3N0cm9rZS13aWR0aDowLjEzMjI5MjtzdHJva2Utb3BhY2l0eToxIi8+JiN4YTsgICAgPGVsbGlwc2Ugcnk9IjAuMTk5NDE4MDgiIHJ4PSIwLjE2NTM4NzAzIiBjeT0iMTguMDA0MTk2IiBjeD0iMTMuMjE5MjIxIiBpZD0iZWxsaXBzZTEyIiBzdHlsZT0iZmlsbDojOTk5OTk5O2ZpbGwtb3BhY2l0eToxO3N0cm9rZTpub25lO3N0cm9rZS13aWR0aDowLjEzMjI5MjtzdHJva2Utb3BhY2l0eToxIi8+JiN4YTsgICAgPGVsbGlwc2Ugcnk9IjAuMTk5NDE4MDgiIHJ4PSIwLjE2NTM4NzAzIiBjeT0iMTguNzQ4ODEyIiBjeD0iMTIuODI5NzU2IiBpZD0iZWxsaXBzZTEzIiBzdHlsZT0iZmlsbDojOTk5OTk5O2ZpbGwtb3BhY2l0eToxO3N0cm9rZTpub25lO3N0cm9rZS13aWR0aDowLjEzMjI5MjtzdHJva2Utb3BhY2l0eToxIi8+JiN4YTsgICAgPGVsbGlwc2Ugcnk9IjAuMTk5NDE4MDgiIHJ4PSIwLjE2NTM4NzAzIiBjeT0iMTkuODM0MjMiIGN4PSIxNC4wNzg2NjkiIGlkPSJlbGxpcHNlMTQiIHN0eWxlPSJmaWxsOiM5OTk5OTk7ZmlsbC1vcGFjaXR5OjE7c3Ryb2tlOm5vbmU7c3Ryb2tlLXdpZHRoOjAuMTMyMjkyO3N0cm9rZS1vcGFjaXR5OjEiLz4mI3hhOyAgICA8ZWxsaXBzZSByeT0iMC4xOTk0MTgwOCIgcng9IjAuMTY1Mzg3MDMiIGN5PSIxOC45MjUzMjMiIGN4PSIxMy43MTAyMDciIGlkPSJlbGxpcHNlMTUiIHN0eWxlPSJmaWxsOiM5OTk5OTk7ZmlsbC1vcGFjaXR5OjE7c3Ryb2tlOm5vbmU7c3Ryb2tlLXdpZHRoOjAuMTMyMjkyO3N0cm9rZS1vcGFjaXR5OjEiLz4mI3hhOyAgICA8ZWxsaXBzZSByeT0iMC4xOTk0MTgwOCIgcng9IjAuMTY1Mzg3MDMiIGN5PSIxNy42NDI5ODQiIGN4PSIxMy44NTM3OTIiIGlkPSJlbGxpcHNlMTYiIHN0eWxlPSJmaWxsOiM5OTk5OTk7ZmlsbC1vcGFjaXR5OjE7c3Ryb2tlOm5vbmU7c3Ryb2tlLXdpZHRoOjAuMTMyMjkyO3N0cm9rZS1vcGFjaXR5OjEiLz4mI3hhOyAgICA8ZWxsaXBzZSByeT0iMC4xOTk0MTgwOCIgcng9IjAuMTY1Mzg3MDMiIGN5PSIyMC4yMjI1NjciIGN4PSIxMi43OTE3NjciIGlkPSJlbGxpcHNlMTciIHN0eWxlPSJmaWxsOiM5OTk5OTk7ZmlsbC1vcGFjaXR5OjE7c3Ryb2tlOm5vbmU7c3Ryb2tlLXdpZHRoOjAuMTMyMjkyO3N0cm9rZS1vcGFjaXR5OjEiLz4mI3hhOyAgICA8ZWxsaXBzZSByeT0iMC4xOTk0MTgwOCIgcng9IjAuMTY1Mzg3MDMiIGN5PSIxOS42MzY1MzQiIGN4PSIxMy4zNjI0OTYiIGlkPSJlbGxpcHNlMTgiIHN0eWxlPSJmaWxsOiM5OTk5OTk7ZmlsbC1vcGFjaXR5OjE7c3Ryb2tlOm5vbmU7c3Ryb2tlLXdpZHRoOjAuMTMyMjkyO3N0cm9rZS1vcGFjaXR5OjEiLz4mI3hhOyAgICA8ZWxsaXBzZSByeT0iMC4xOTk0MTgwOCIgcng9IjAuMTY1Mzg3MDMiIGN5PSIxNi4yNDI0OTEiIGN4PSIxMy41Mjk5NzciIGlkPSJlbGxpcHNlMTkiIHN0eWxlPSJmaWxsOiM5OTk5OTk7ZmlsbC1vcGFjaXR5OjE7c3Ryb2tlOm5vbmU7c3Ryb2tlLXdpZHRoOjAuMTMyMjkyO3N0cm9rZS1vcGFjaXR5OjEiLz4mI3hhOyAgICA8ZWxsaXBzZSByeT0iMC4xOTk0MTgwOCIgcng9IjAuMTY1Mzg3MDMiIGN5PSIxNS4yODQ2NiIgY3g9IjEzLjE0ODY2MyIgaWQ9ImVsbGlwc2UyMCIgc3R5bGU9ImZpbGw6Izk5OTk5OTtmaWxsLW9wYWNpdHk6MTtzdHJva2U6bm9uZTtzdHJva2Utd2lkdGg6MC4xMzIyOTI7c3Ryb2tlLW9wYWNpdHk6MSIvPiYjeGE7ICAgIDxlbGxpcHNlIHJ5PSIwLjE5OTQxODA4IiByeD0iMC4xNjUzODcwMyIgY3k9IjIwLjU5MDUxNSIgY3g9IjEzLjM3OTk5OCIgaWQ9ImVsbGlwc2UyMSIgc3R5bGU9ImZpbGw6Izk5OTk5OTtmaWxsLW9wYWNpdHk6MTtzdHJva2U6bm9uZTtzdHJva2Utd2lkdGg6MC4xMzIyOTI7c3Ryb2tlLW9wYWNpdHk6MSIvPiYjeGE7ICAgIDxlbGxpcHNlIHJ5PSIwLjE5OTQxODA4IiByeD0iMC4xNjUzODcwMyIgY3k9IjIwLjQyMzIyOSIgY3g9IjE0LjE2Mjc5MSIgaWQ9ImVsbGlwc2UyMiIgc3R5bGU9ImZpbGw6Izk5OTk5OTtmaWxsLW9wYWNpdHk6MTtzdHJva2U6bm9uZTtzdHJva2Utd2lkdGg6MC4xMzIyOTI7c3Ryb2tlLW9wYWNpdHk6MSIvPiYjeGE7ICA8L2c+JiN4YTs8L3N2Zz4=;" vertex="1" parent="ikP8FcmtaZFmG0Al0bjf-29">
          <mxGeometry x="180" y="40" width="40" height="40" as="geometry" />
        </mxCell>
      </root>
    </mxGraphModel>
  </diagram>
</mxfile>
